<svg width="71" height="60" viewBox="0 0 71 60" fill="none" xmlns="http://www.w3.org/2000/svg">
<g clip-path="url(#clip0_88_24)">
<rect width="71" height="60" rx="12" fill="#FFFAFA"/>
<g filter="url(#filter0_d_88_24)">
<path d="M61.9688 20.4674C61.6298 19.6912 61.2474 18.9309 60.8217 18.1865C60.5822 17.7649 60.3279 17.3461 60.0589 16.9357C58.9029 15.1657 57.4926 13.4934 55.828 11.9216C50.379 6.77632 43.7977 4.20227 36.0899 4.20227C28.382 4.20227 21.8036 6.77632 16.3546 11.9216C10.9057 17.0669 8.17969 23.2787 8.17969 30.557C8.17969 37.8352 10.9057 44.0498 16.3546 49.1951C21.8036 54.3404 28.382 56.9117 36.0899 56.9117C43.7977 56.9117 50.379 54.3404 55.828 49.1951C58.8289 46.3586 61.005 43.1983 62.3532 39.7169C63.4501 36.8776 64 33.8262 64 30.557C64 28.0499 63.6777 25.6685 63.0303 23.4127C62.9563 23.1587 62.8795 22.9046 62.7996 22.6533C62.5572 21.9107 62.2793 21.1821 61.9688 20.4674Z" fill="black" fill-opacity="0.098039"/>
<path d="M61.9747 22.7427C61.9097 22.4998 61.8358 22.2402 61.7589 21.9833C61.6259 21.545 61.478 21.1011 61.3125 20.6544C61.2947 20.6125 61.277 20.5623 61.2593 20.512C60.8779 19.493 60.4225 18.4991 59.8904 17.5164C59.6656 17.1032 59.4203 16.6817 59.163 16.2657C57.9627 14.3393 56.4548 12.5135 54.6483 10.8077C50.3642 6.76237 45.3794 4.30558 39.6998 3.44291C39.6821 3.44012 39.6644 3.43732 39.6496 3.43453C38.6887 3.28936 37.7101 3.18885 36.69 3.13581C36.1165 3.1051 35.5163 3.08835 34.9102 3.08835C34.3573 3.08835 33.8103 3.10231 33.2604 3.13023C26.2622 3.47083 20.2337 6.03092 15.175 10.8077C11.834 13.9625 9.51901 17.5164 8.22994 21.4557C7.40998 23.9571 7 26.6196 7 29.443C7 36.7213 9.72597 42.9359 15.175 48.0812C16.8543 49.6669 18.643 51.0098 20.485 52.0763C20.6831 52.1879 20.8546 52.2856 21.026 52.3806C22.1939 53.0255 23.3706 53.5671 24.5828 54.0166C24.9642 54.1617 25.3279 54.2874 25.6945 54.4046C26.6524 54.7145 27.6311 54.9714 28.5919 55.1724C30.1264 55.4851 31.6697 55.6805 33.2604 55.7587H33.284C33.7867 55.7838 34.2656 55.7977 34.7328 55.7977H34.9102C35.5192 55.7977 36.1224 55.781 36.69 55.7531C36.8379 55.7447 36.9709 55.7363 37.101 55.7279C38.2955 55.647 39.4603 55.5018 40.572 55.298C41.0421 55.2115 41.5063 55.1137 41.9557 55.0105C42.9816 54.7676 43.9839 54.4688 44.9596 54.1199C45.6928 53.8546 46.4113 53.5587 47.1149 53.2349C47.8718 52.8831 48.6139 52.4978 49.3383 52.079C49.5186 51.973 49.696 51.8669 49.8734 51.758C50.7397 51.2275 51.5676 50.6552 52.3718 50.0326C53.1552 49.424 53.9121 48.7763 54.6483 48.0812C55.349 47.4195 56.0054 46.7383 56.6174 46.0432C58.5096 43.8795 59.9702 41.5483 60.9961 39.0469C61.2297 38.4746 61.4426 37.8939 61.6318 37.3076C61.7619 36.9 61.8831 36.4868 61.9954 36.0624C62.4596 34.284 62.7316 32.4191 62.8026 30.476C62.8144 30.1382 62.8203 29.792 62.8203 29.443C62.8203 29.4068 62.8203 29.3677 62.8203 29.3314C62.8203 29.3118 62.8203 29.2951 62.8203 29.2755C62.8085 27.0058 62.5276 24.8366 61.9747 22.7427Z" fill="#73AAD1"/>
<path d="M60.9961 39.0469C61.2297 38.4746 61.4426 37.8939 61.6318 37.3076C61.7619 36.9 61.8831 36.4868 61.9954 36.0624C62.4596 34.284 62.7316 32.4191 62.8026 30.476C62.8144 30.1336 62.8203 29.7892 62.8203 29.443C62.8203 29.4068 62.8203 29.3677 62.8203 29.3314C62.8203 29.3118 62.8203 29.2951 62.8203 29.2755L50.2844 17.4383L19.0629 28.773L29.8662 38.9743L30.2388 40.2194L44.9596 54.1199C45.6928 53.8546 46.4113 53.5587 47.1149 53.2349C47.8718 52.8831 48.6139 52.4978 49.3383 52.0791C49.5187 51.973 49.696 51.8669 49.8734 51.758C50.7397 51.2276 51.5676 50.6552 52.3718 50.0327C53.1552 49.424 53.9121 48.7763 54.6483 48.0812C55.349 47.4195 56.0054 46.7383 56.6174 46.0432C58.5096 43.8795 59.9702 41.5483 60.9961 39.0469Z" fill="black" fill-opacity="0.2"/>
<mask id="mask0_88_24" style="mask-type:luminance" maskUnits="userSpaceOnUse" x="7" y="3" width="56" height="53">
<path d="M61.3125 20.6544C61.2947 20.6125 61.277 20.5623 61.2593 20.512C60.8779 19.493 60.4225 18.4991 59.8904 17.5164C59.6656 17.1032 59.4203 16.6817 59.163 16.2657C57.9627 14.3393 56.4548 12.5135 54.6483 10.8077C50.3642 6.76237 45.3794 4.30558 39.6998 3.44291C39.6821 3.44012 39.6644 3.43732 39.6496 3.43453C38.6887 3.28936 37.7101 3.18885 36.69 3.13581C36.1165 3.1051 35.5163 3.08835 34.9102 3.08835C34.3573 3.08835 33.8103 3.10231 33.2604 3.13023C26.2622 3.47083 20.2337 6.03092 15.175 10.8077C11.834 13.9625 9.51901 17.5164 8.22994 21.4557C7.40998 23.9571 7 26.6196 7 29.443C7 36.7213 9.72597 42.9359 15.175 48.0812C16.8543 49.6669 18.643 51.0098 20.485 52.0763C20.6831 52.1879 20.8546 52.2856 21.026 52.3806C22.1939 53.0255 23.3706 53.5671 24.5828 54.0166C24.9642 54.1617 25.3279 54.2874 25.6945 54.4046C26.6524 54.7145 27.6311 54.9714 28.5919 55.1724C30.1264 55.4851 31.6697 55.6805 33.2604 55.7587H33.284C33.7867 55.7838 34.2656 55.7977 34.7328 55.7977H34.9102C35.5192 55.7977 36.1224 55.781 36.69 55.7531C36.8379 55.7447 36.9709 55.7363 37.101 55.7279C38.2955 55.647 39.4603 55.5018 40.572 55.298C41.0421 55.2115 41.5063 55.1137 41.9557 55.0105C43.7563 54.5833 45.477 53.9886 47.1149 53.2349C47.8718 52.8831 48.6139 52.4978 49.3383 52.079C49.5186 51.973 49.696 51.8669 49.8734 51.758C50.7397 51.2275 51.5676 50.6552 52.3718 50.0326C53.1552 49.424 53.9121 48.7763 54.6483 48.0812C55.349 47.4195 56.0054 46.7383 56.6174 46.0432C58.5096 43.8795 59.9702 41.5483 60.9961 39.0469C61.2297 38.4746 61.4426 37.8939 61.6318 37.3076C61.7619 36.9 61.8831 36.4868 61.9954 36.0624C62.4596 34.284 62.7316 32.4191 62.8026 30.476C62.8144 30.1382 62.8203 29.792 62.8203 29.443C62.8203 29.4068 62.8203 29.3677 62.8203 29.3314C62.8203 29.3118 62.8203 29.2951 62.8203 29.2755C62.8085 27.0058 62.5276 24.8366 61.9747 22.7427C61.9097 22.4998 61.8358 22.2402 61.7589 21.9833C61.6259 21.545 61.478 21.1011 61.3125 20.6544Z" fill="white"/>
</mask>
<g mask="url(#mask0_88_24)">
<path d="M14.1313 21.9694C13.3212 21.9694 12.6323 22.2374 12.0646 22.7762C11.497 23.315 11.2131 23.9655 11.2131 24.7249L11.222 24.9566C10.7785 25.1492 10.4237 25.4424 10.1576 25.836C9.88564 26.2297 9.74963 26.6624 9.74963 27.137C9.74963 27.7987 10.0009 28.3682 10.4976 28.8428C11.0003 29.3118 11.6034 29.5491 12.3041 29.5491H18.5041C19.1102 29.5491 19.6276 29.3453 20.0563 28.9377C20.482 28.5385 20.692 28.0499 20.692 27.4804C20.692 26.9946 20.5323 26.5647 20.2159 26.1906C19.8966 25.8165 19.4916 25.5764 19.0008 25.4703C19.1604 25.2442 19.2373 24.9957 19.2373 24.7249C19.2373 24.3452 19.0954 24.0214 18.8116 23.7505C18.5238 23.4807 18.1789 23.3457 17.7768 23.3457C17.4101 23.3457 17.0938 23.4546 16.8277 23.678C16.606 23.1698 16.2512 22.7567 15.7633 22.4412C15.2725 22.1257 14.7285 21.9694 14.1313 21.9694ZM29.9668 5.51444C29.9668 4.97003 29.7628 4.5038 29.3548 4.11853C28.9438 3.72768 28.4471 3.53504 27.8705 3.53504C27.3472 3.53504 26.8919 3.69418 26.5105 4.01244C26.1942 3.28378 25.6856 2.69192 24.982 2.23685C24.2812 1.78737 23.5007 1.56403 22.6433 1.56403C21.4843 1.56403 20.4968 1.9465 19.6808 2.71704C18.8677 3.49317 18.4597 4.42563 18.4597 5.51444L18.4716 5.84666C17.8389 6.12305 17.3303 6.54462 16.946 7.10856C16.5557 7.66972 16.3635 8.29229 16.3635 8.9707C16.3635 9.92271 16.7213 10.7379 17.4338 11.4191C18.1552 12.0919 19.0185 12.4298 20.0238 12.4298H28.9142C29.7835 12.4298 30.5256 12.1394 31.1405 11.5559C31.7496 10.9808 32.0541 10.2829 32.0541 9.46485C32.0541 8.76969 31.8265 8.1527 31.3682 7.61388C30.9099 7.07785 30.3304 6.73446 29.6297 6.58091C29.8544 6.25706 29.9668 5.89971 29.9668 5.51444ZM57.0934 30.4956C56.171 29.9037 55.1421 29.6106 54.0127 29.6106C52.4871 29.6106 51.1862 30.1131 50.1129 31.1293C49.0427 32.1511 48.5046 33.3795 48.5046 34.8117L48.5193 35.25C47.6856 35.6129 47.0174 36.1685 46.5089 36.9111C45.9974 37.651 45.7431 38.4718 45.7431 39.3651C45.7431 40.6187 46.2132 41.6935 47.1534 42.5897C48.1025 43.4747 49.2407 43.9214 50.5653 43.9214H62.2734C63.4176 43.9214 64.3962 43.5389 65.2063 42.7684C66.0075 42.0118 66.4096 41.0933 66.4096 40.0156C66.4096 39.0999 66.1081 38.2875 65.5049 37.5784C64.9018 36.8721 64.139 36.4198 63.2165 36.216C63.5122 35.7916 63.66 35.3198 63.66 34.8117C63.66 34.0942 63.391 33.4828 62.8529 32.9747C62.3118 32.4582 61.6584 32.2069 60.8986 32.2069C60.2097 32.2069 59.6095 32.4163 59.1069 32.8351C58.69 31.8747 58.0218 31.0958 57.0934 30.4956Z" fill="white" fill-opacity="0.298039"/>
</g>
<path d="M46.2265 21.074L44.2238 20.5841L27.1404 30.6662L29.9032 39.2331C30.0158 39.5141 30.1244 39.8141 30.2289 40.1331C30.3415 40.3153 30.6029 40.4065 31.0132 40.4065L44.5616 25.3574L46.2265 21.074Z" fill="#C5DAEB"/>
<path d="M36.2009 30.6206L31.6164 33.3548L31.0132 40.1787V40.4065C31.3349 40.4065 31.6164 40.3381 31.8576 40.2015C31.9944 40.1255 32.1955 39.966 32.4609 39.7229L41.1473 31.7485L36.2009 30.6206Z" fill="#A3C9DF"/>
<path d="M46.9897 21.2006C47.5867 19.4004 46.411 18.493 45.1123 18.959L16.6355 27.334C14.688 27.9303 14.6362 28.9429 16.1494 29.4835L23.1569 32.0371L40.3223 23.2229C41.1329 22.8289 41.8283 23.1124 41.2067 23.5754L27.0857 34.1455L38.2291 42.9983C39.5099 43.7754 40.4953 43.4837 40.9151 42.0034L46.9897 21.2006Z" fill="url(#paint0_linear_88_24)"/>
</g>
</g>
<defs>
<filter id="filter0_d_88_24" x="3" y="3.08835" width="65" height="61.8233" filterUnits="userSpaceOnUse" color-interpolation-filters="sRGB">
<feFlood flood-opacity="0" result="BackgroundImageFix"/>
<feColorMatrix in="SourceAlpha" type="matrix" values="0 0 0 0 0 0 0 0 0 0 0 0 0 0 0 0 0 0 127 0" result="hardAlpha"/>
<feOffset dy="4"/>
<feGaussianBlur stdDeviation="2"/>
<feComposite in2="hardAlpha" operator="out"/>
<feColorMatrix type="matrix" values="0 0 0 0 0 0 0 0 0 0 0 0 0 0 0 0 0 0 0.25 0"/>
<feBlend mode="normal" in2="BackgroundImageFix" result="effect1_dropShadow_88_24"/>
<feBlend mode="normal" in="SourceGraphic" in2="effect1_dropShadow_88_24" result="shape"/>
</filter>
<linearGradient id="paint0_linear_88_24" x1="33.7799" y1="38.9823" x2="39.9078" y2="29.9558" gradientUnits="userSpaceOnUse">
<stop stop-color="#EEF7FD"/>
<stop offset="1" stop-color="white"/>
</linearGradient>
<clipPath id="clip0_88_24">
<rect width="71" height="60" rx="12" fill="white"/>
</clipPath>
</defs>
</svg>
