<svg width="63" height="58" viewBox="0 0 63 58" fill="none" xmlns="http://www.w3.org/2000/svg">
<g clip-path="url(#clip0_87_12)">
<rect width="63" height="58" rx="15" fill="#868CBD"/>
<g filter="url(#filter0_d_87_12)">
<g filter="url(#filter1_d_87_12)">
<path d="M10.2048 10.4406L9.3251 9.68115L9.33553 9.6722L10.2048 10.4406ZM10.2048 47.5594L9.3334 48.326L9.32312 48.3169L10.2048 47.5594ZM52.7952 47.5594L53.675 48.3189L53.6646 48.3279L52.7952 47.5594ZM52.7952 10.4406L53.6666 9.67392L53.677 9.68301L52.7952 10.4406ZM15.0911 20.5548L13.8533 20.5769C13.8465 20.2869 13.9738 20.0068 14.2067 19.7996C14.4396 19.5924 14.7583 19.4757 15.0911 19.4757V20.5548ZM33.7451 38.51H34.9832C34.9832 39.1058 34.4288 39.589 33.7451 39.589V38.51ZM33.7451 32.0932H32.507C32.507 31.7885 32.6548 31.498 32.9141 31.2934C33.1734 31.0888 33.5198 30.9893 33.8679 31.0195L33.7451 32.0932ZM42.2798 38.51V39.589C41.7415 39.589 41.2651 39.286 41.1009 38.8393L42.2798 38.51ZM48.14 38.51L49.3352 38.2284C49.4358 38.5525 49.3575 38.8991 49.1233 39.1658C48.8888 39.4326 48.5255 39.589 48.14 39.589V38.51ZM39.6714 29.5035L39.1197 30.4697C38.7163 30.2944 38.4536 29.942 38.4345 29.5494C38.4152 29.1569 38.6425 28.7864 39.0276 28.582L39.6714 29.5035ZM46.9019 20.5404V19.4613C47.2738 19.4613 47.6259 19.607 47.8612 19.8581C48.0964 20.1092 48.1895 20.4391 48.115 20.7566L46.9019 20.5404ZM41.5865 20.5404L40.3949 20.2472C40.5455 19.7824 41.0321 19.4613 41.5865 19.4613V20.5404ZM33.7451 27.6475L33.8764 28.7205C33.5272 28.7531 33.1786 28.6547 32.9173 28.4501C32.6561 28.2453 32.507 27.9538 32.507 27.6475H33.7451ZM33.7451 20.5548V19.4757C34.4288 19.4757 34.9832 19.9588 34.9832 20.5548H33.7451ZM28.4131 20.5548H27.175C27.175 19.9588 27.7292 19.4757 28.4131 19.4757V20.5548ZM28.4131 32.9853H29.6512C29.6512 33.3174 29.4754 33.6312 29.175 33.8358C28.8744 34.0402 28.4827 34.1127 28.1128 34.032L28.4131 32.9853ZM20.7699 20.5548V19.4757C21.4444 19.4757 21.9948 19.9463 22.0077 20.534L20.7699 20.5548ZM5.5 28.1368C5.5 23.2827 5.4974 19.5359 5.94428 16.626C6.39591 13.6851 7.32661 11.4395 9.3251 9.68115L11.0844 11.1999C9.6162 12.4917 8.81362 14.2098 8.39858 16.9123C7.9788 19.6457 7.9762 23.222 7.9762 28.1368H5.5ZM5.5 29.8632V28.1368H7.9762V29.8632H5.5ZM9.32312 48.3169C7.32657 46.552 6.39594 44.3044 5.94428 41.3632C5.4974 38.4534 5.5 34.7103 5.5 29.8632H7.9762C7.9762 34.7707 7.9788 38.3434 8.39858 41.077C8.81357 43.7791 9.6163 45.5024 11.0864 46.8019L9.32312 48.3169ZM30.5095 51.6598C24.9399 51.6598 20.6408 51.6621 17.302 51.2726C13.9275 50.879 11.3509 50.0678 9.3334 48.326L11.0761 46.7929C12.5582 48.0724 14.5296 48.7718 17.6305 49.1335C20.7669 49.4993 24.8703 49.5017 30.5095 49.5017V51.6598ZM32.4904 51.6598H30.5095V49.5017H32.4904V51.6598ZM53.6646 48.3279C51.6396 50.068 49.0604 50.879 45.6858 51.2726C42.3469 51.6621 38.052 51.6598 32.4904 51.6598V49.5017C38.1215 49.5017 42.2209 49.4993 45.3572 49.1335C48.4579 48.7718 50.4349 48.0722 51.9261 46.7909L53.6646 48.3279ZM57.5 29.8632C57.5 34.7174 57.5027 38.4642 57.0558 41.374C56.6041 44.315 55.6736 46.5605 53.675 48.3189L51.9157 46.8C53.3838 45.5084 54.1866 43.7901 54.6016 41.0878C55.0213 38.3542 55.0238 34.778 55.0238 29.8632H57.5ZM57.5 28.1368V29.8632H55.0238V28.1368H57.5ZM53.677 9.68301C55.6736 11.4479 56.6041 13.6957 57.0558 16.6368C57.5027 19.5467 57.5 23.2898 57.5 28.1368H55.0238C55.0238 23.2292 55.0213 19.6565 54.6016 16.9231C54.1866 14.2208 53.3838 12.4977 51.9137 11.1981L53.677 9.68301ZM32.4904 6.34024C38.0601 6.34024 42.3593 6.33797 45.6982 6.72744C49.0725 7.12105 51.649 7.93216 53.6666 9.67392L51.9241 11.2072C50.4419 9.92763 48.4706 9.22815 45.3696 8.86644C42.2333 8.50058 38.1297 8.49831 32.4904 8.49831V6.34024ZM30.5095 6.34024H32.4904V8.49831H30.5095V6.34024ZM9.33553 9.6722C11.3606 7.93214 13.9397 7.1211 17.3143 6.72744C20.6532 6.33797 24.9481 6.34024 30.5095 6.34024V8.49831C24.8786 8.49831 20.7792 8.50058 17.6428 8.86644C14.5422 9.22811 12.5651 9.92771 11.074 11.209L9.33553 9.6722ZM33.0847 39.589C27.1364 39.589 22.3394 37.8045 19.0151 34.4453C15.7155 31.111 13.9892 26.3497 13.8533 20.5769L16.329 20.5326C16.4572 25.9817 18.0819 30.198 20.8903 33.0358C23.674 35.8486 27.7418 37.4309 33.0847 37.4309V39.589ZM33.1013 39.589H33.0847V37.4309H33.1013V39.589ZM33.7451 39.589H33.1013V37.4309H33.7451V39.589ZM34.9832 32.0932V38.51H32.507V32.0932H34.9832ZM41.1009 38.8393C39.9668 35.7574 37.1843 33.4761 33.6223 33.167L33.8679 31.0195C38.5928 31.4298 42.0835 34.4429 43.4587 38.1804L41.1009 38.8393ZM48.14 39.589H42.2798V37.4309H48.14V39.589ZM45.9713 32.5315C47.542 34.2018 48.6885 36.1434 49.3352 38.2284L46.945 38.7916C46.3896 37.0013 45.405 35.3337 44.056 33.8995L45.9713 32.5315ZM40.2231 28.5375C42.4415 29.4998 44.4007 30.8611 45.9713 32.5315L44.056 33.8995C42.7072 32.465 41.0249 31.296 39.1197 30.4697L40.2231 28.5375ZM45.3716 26.2994C44.0295 27.9631 42.3083 29.3675 40.3155 30.4252L39.0276 28.582C40.7297 27.6786 42.1996 26.4789 43.3458 25.0583L45.3716 26.2994ZM48.115 20.7566C47.6475 22.7489 46.7134 24.6358 45.3716 26.2994L43.3458 25.0583C44.4921 23.6373 45.2896 22.0258 45.689 20.3242L48.115 20.7566ZM41.5865 19.4613H46.9019V21.6194H41.5865V19.4613ZM33.6139 26.5748C34.8433 26.4604 36.2609 25.762 37.5542 24.5755C38.8312 23.4039 39.8739 21.8555 40.3949 20.2472L42.778 20.8335C42.1431 22.7933 40.8914 24.6473 39.3497 26.0618C37.8242 27.4613 35.8992 28.5326 33.8764 28.7205L33.6139 26.5748ZM34.9832 20.5548V27.6475H32.507V20.5548H34.9832ZM28.4131 19.4757H33.7451V21.6338H28.4131V19.4757ZM27.175 32.9853V20.5548H29.6512V32.9853H27.175ZM22.0077 20.534C22.1827 28.4661 26.1401 31.3778 28.7132 31.9384L28.1128 34.032C24.0828 33.1541 19.7201 29.1023 19.532 20.5755L22.0077 20.534ZM15.0911 19.4757H20.7699V21.6338H15.0911V19.4757Z" fill="black"/>
</g>
</g>
</g>
<defs>
<filter id="filter0_d_87_12" x="1.5" y="6.34024" width="60" height="53.3195" filterUnits="userSpaceOnUse" color-interpolation-filters="sRGB">
<feFlood flood-opacity="0" result="BackgroundImageFix"/>
<feColorMatrix in="SourceAlpha" type="matrix" values="0 0 0 0 0 0 0 0 0 0 0 0 0 0 0 0 0 0 127 0" result="hardAlpha"/>
<feOffset dy="4"/>
<feGaussianBlur stdDeviation="2"/>
<feComposite in2="hardAlpha" operator="out"/>
<feColorMatrix type="matrix" values="0 0 0 0 0 0 0 0 0 0 0 0 0 0 0 0 0 0 0.25 0"/>
<feBlend mode="normal" in2="BackgroundImageFix" result="effect1_dropShadow_87_12"/>
<feBlend mode="normal" in="SourceGraphic" in2="effect1_dropShadow_87_12" result="shape"/>
</filter>
<filter id="filter1_d_87_12" x="1.5" y="6.34024" width="60" height="53.3195" filterUnits="userSpaceOnUse" color-interpolation-filters="sRGB">
<feFlood flood-opacity="0" result="BackgroundImageFix"/>
<feColorMatrix in="SourceAlpha" type="matrix" values="0 0 0 0 0 0 0 0 0 0 0 0 0 0 0 0 0 0 127 0" result="hardAlpha"/>
<feOffset dy="4"/>
<feGaussianBlur stdDeviation="2"/>
<feComposite in2="hardAlpha" operator="out"/>
<feColorMatrix type="matrix" values="0 0 0 0 0 0 0 0 0 0 0 0 0 0 0 0 0 0 0.25 0"/>
<feBlend mode="normal" in2="BackgroundImageFix" result="effect1_dropShadow_87_12"/>
<feBlend mode="normal" in="SourceGraphic" in2="effect1_dropShadow_87_12" result="shape"/>
</filter>
<clipPath id="clip0_87_12">
<rect width="63" height="58" rx="15" fill="white"/>
</clipPath>
</defs>
</svg>
