<svg width="72" height="68" viewBox="0 0 72 68" fill="none" xmlns="http://www.w3.org/2000/svg">
<rect width="72" height="68" rx="25" fill="#DB00FF" fill-opacity="0.42"/>
<g filter="url(#filter0_d_88_27)">
<path d="M26.8749 33.9909C26.8792 29.6659 30.968 26.1629 36.0089 26.168C41.0498 26.173 45.1338 29.6841 45.1295 34.0091C45.1251 38.3341 41.0341 41.8371 35.9933 41.832C30.9524 41.827 26.8706 38.3159 26.8749 33.9909ZM21.9403 33.986C21.9336 40.6489 28.2233 46.0563 35.9891 46.064C43.7548 46.0718 50.0552 40.677 50.0619 34.014C50.0685 27.3511 43.7789 21.9437 36.0131 21.936C28.2473 21.9282 21.9469 27.323 21.9403 33.986ZM47.3451 21.469C47.3428 23.026 48.8121 24.2902 50.6269 24.2927C52.4417 24.2951 53.9147 23.0348 53.917 21.4778C53.9193 19.9207 52.4499 18.6565 50.6352 18.654C48.8212 18.653 47.3482 19.9126 47.3451 21.469ZM24.9193 53.1127C22.2497 53.0057 20.799 52.6227 19.835 52.2994C18.557 51.8711 17.6453 51.3616 16.6871 50.5389C15.7288 49.7162 15.1359 48.9338 14.6415 47.8364C14.2664 47.009 13.823 45.7632 13.7039 43.4724C13.5736 40.9958 13.5478 40.2519 13.5541 33.9778C13.5604 27.7037 13.5898 26.9619 13.7228 24.4835C13.8467 22.193 14.2959 20.9505 14.6692 20.1214C15.168 19.025 15.7615 18.243 16.7201 17.4211C17.6787 16.5992 18.5905 16.0907 19.8715 15.6668C20.8357 15.3453 22.2876 14.9652 24.9575 14.8637C27.844 14.7527 28.711 14.7308 36.0203 14.7381C43.3296 14.7454 44.1975 14.7709 47.0862 14.8858C49.7558 14.9928 51.2041 15.3786 52.1705 15.6991C53.4485 16.1255 54.3602 16.6369 55.3184 17.4596C56.2766 18.2823 56.8673 19.0666 57.364 20.164C57.739 20.9914 58.1825 22.2372 58.3016 24.5279C58.4318 27.0066 58.4576 27.7485 58.4514 34.0226C58.4451 40.2967 58.4178 41.0385 58.2826 43.5169C58.1588 45.8074 57.7106 47.052 57.3363 47.879C56.8375 48.9754 56.2439 49.7574 55.2854 50.5774C54.3268 51.3975 53.4128 51.9059 52.1339 52.3317C51.1697 52.6532 49.7178 53.0333 47.048 53.1348C44.1615 53.2458 43.2944 53.2677 35.9819 53.2604C28.6693 53.2531 27.8047 53.2295 24.9193 53.1127ZM24.735 10.6368C21.8198 10.7478 19.8274 11.1424 18.0873 11.7214C16.2851 12.3194 14.7592 13.1225 13.2338 14.4265C11.7085 15.7305 10.7718 17.0402 10.0712 18.5852C9.39283 20.078 8.9289 21.7857 8.79366 24.2866C8.65622 26.7916 8.62453 27.5924 8.61816 33.9727C8.6118 40.353 8.64189 41.1539 8.77433 43.6591C8.90459 46.1605 9.36511 47.8689 10.0405 49.363C10.738 50.9085 11.6723 52.2216 13.1948 53.528C14.7173 54.8345 16.2419 55.6396 18.0428 56.2428C19.7851 56.8253 21.7734 57.2239 24.6884 57.3407C27.6095 57.4575 28.5413 57.4868 35.9776 57.4942C43.414 57.5017 44.3474 57.4761 47.2672 57.3632C50.1826 57.2522 52.1737 56.8576 53.9149 56.2786C55.716 55.6789 57.243 54.8775 58.7683 53.5735C60.2937 52.2695 61.2284 50.9589 61.9309 49.4148C62.6093 47.922 63.0755 46.2143 63.2085 43.7134C63.3438 41.2066 63.3754 40.4076 63.3818 34.0273C63.3882 27.647 63.3581 26.8461 63.2278 24.3409C63.0976 21.8395 62.6371 20.1302 61.9616 18.637C61.2622 17.0915 60.3277 15.7811 58.8073 14.472C57.287 13.1628 55.7592 12.3587 53.9615 11.7572C52.2192 11.1747 50.2288 10.7742 47.316 10.6593C44.3964 10.5425 43.463 10.5132 36.0267 10.5058C28.5904 10.4983 27.6563 10.5239 24.735 10.6368Z" fill="url(#paint0_radial_88_27)"/>
</g>
<defs>
<filter id="filter0_d_88_27" x="4.61737" y="10.5046" width="62.7652" height="54.9908" filterUnits="userSpaceOnUse" color-interpolation-filters="sRGB">
<feFlood flood-opacity="0" result="BackgroundImageFix"/>
<feColorMatrix in="SourceAlpha" type="matrix" values="0 0 0 0 0 0 0 0 0 0 0 0 0 0 0 0 0 0 127 0" result="hardAlpha"/>
<feOffset dy="4"/>
<feGaussianBlur stdDeviation="2"/>
<feComposite in2="hardAlpha" operator="out"/>
<feColorMatrix type="matrix" values="0 0 0 0 0 0 0 0 0 0 0 0 0 0 0 0 0 0 0.25 0"/>
<feBlend mode="normal" in2="BackgroundImageFix" result="effect1_dropShadow_88_27"/>
<feBlend mode="normal" in="SourceGraphic" in2="effect1_dropShadow_88_27" result="shape"/>
</filter>
<radialGradient id="paint0_radial_88_27" cx="0" cy="0" r="1" gradientUnits="userSpaceOnUse" gradientTransform="translate(124.304 765.962) rotate(0.05716) scale(1143.88 981.472)">
<stop offset="0.09" stop-color="#FA8F21"/>
<stop offset="0.78" stop-color="#D82D7E"/>
</radialGradient>
</defs>
</svg>
